<svg xmlns="http://www.w3.org/2000/svg" width="512" height="512" fill="none"><rect width="512" height="512" fill="#010104" rx="256"/><path fill="url(#a)" d="M302.972 256c-.002 13.145-4.019 26.004-11.559 37.004-7.539 10.999-18.275 19.662-30.892 24.928v113.669h-56.603v-113.7c-12.617-5.258-23.353-13.914-30.893-24.909-7.54-10.995-11.556-23.851-11.556-36.992 0-13.142 4.016-25.997 11.556-36.992 7.54-10.995 18.276-19.652 30.893-24.909v-113.7h56.603v113.668c12.62 5.262 23.358 13.924 30.899 24.925 7.54 11 11.555 23.862 11.552 37.008Z"/><path fill="url(#b)" d="M404.58 78v81.046l-59.116 56.431-28.29-27.018-18.22 17.392a83.385 83.385 0 0 0-14.161-13.518L404.58 78Z"/><path fill="url(#c)" d="m345.461 296.524 59.117 56.431v81.046L284.805 319.669a83.483 83.483 0 0 0 14.152-13.505l18.215 17.379 28.289-27.019Z"/><path fill="#EFF0F3" d="M147.341 256.001c-.035 18.197 6.384 35.869 18.211 50.14L90.738 377.57v-81.046l28.304-27.014v-27.018l-28.304-27.014v-81.046l74.814 71.415c-11.831 14.274-18.25 31.952-18.211 50.154Z"/><defs><linearGradient id="a" x1="300.319" x2="152.553" y1="80.398" y2="84.191" gradientUnits="userSpaceOnUse"><stop stop-color="#2DD282"/><stop offset="1" stop-color="#90F4E8"/></linearGradient><linearGradient id="b" x1="402.334" x2="277.548" y1="78" y2="84.925" gradientUnits="userSpaceOnUse"><stop stop-color="#2DD282"/><stop offset="1" stop-color="#90F4E8"/></linearGradient><linearGradient id="c" x1="402.332" x2="277.56" y1="296.524" y2="303.448" gradientUnits="userSpaceOnUse"><stop stop-color="#2DD282"/><stop offset="1" stop-color="#90F4E8"/></linearGradient></defs></svg>
