<svg xmlns="http://www.w3.org/2000/svg" width="512" height="513" fill="none"><style>.accent{fill:#109288}.highlight{fill:#03413b}@media (prefers-color-scheme:dark){.accent{fill:#e5f9f8}.highlight{fill:#6bd6cd}}</style><rect width="512" height="512" y=".457" rx="256" style="fill:#f3fefd"/><path d="M255.95 277.309c-8.015 0-14.557-6.542-14.557-14.556V121.438c0-8.014 6.542-14.557 14.557-14.557 8.014 0 14.556 6.543 14.556 14.557v141.478c0 8.015-6.542 14.557-14.556 14.557v-.164ZM303.872 290.231c-2.453 0-4.907-.655-7.197-1.963-6.869-3.926-9.322-12.921-5.233-19.791l70.657-122.505c3.925-6.87 12.921-9.323 19.791-5.234 6.869 3.925 9.322 12.921 5.233 19.791l-70.657 122.505c-2.617 4.58-7.524 7.197-12.594 7.197ZM339.045 325.233c-5.07 0-9.814-2.617-12.594-7.197-3.925-6.869-1.636-15.865 5.234-19.79l122.505-70.658c6.87-4.089 15.865-1.635 19.791 5.234 3.925 6.87 1.635 15.866-5.234 19.791L346.242 323.27c-2.29 1.309-4.744 1.963-7.197 1.963ZM208.029 290.229c-5.071 0-9.814-2.617-12.594-7.196l-70.658-122.669c-3.925-6.87-1.635-15.865 5.234-19.791 6.87-4.089 15.865-1.635 19.791 5.234l70.657 122.505c3.925 6.87 1.636 15.866-5.234 19.791-2.29 1.309-4.743 1.963-7.196 1.963v.163ZM173.027 325.233c-2.454 0-4.907-.654-7.197-1.963L43.161 252.613c-6.87-3.925-9.323-12.921-5.234-19.791 3.926-6.869 12.921-9.323 19.79-5.234l122.506 70.658c6.87 3.925 9.323 12.921 5.234 19.79-2.617 4.58-7.523 7.197-12.594 7.197h.164Z" class="accent"/><path d="M255.95 226.279c-8.015 0-14.557-6.542-14.557-14.557v-90.284c0-8.014 6.542-14.557 14.557-14.557 8.014 0 14.556 6.543 14.556 14.557v90.448c0 8.014-6.542 14.557-14.556 14.557v-.164ZM86.014 275.02c-2.454 0-4.907-.654-7.197-1.963l-35.656-20.608c-6.87-3.926-9.323-12.921-5.234-19.791 3.926-6.869 12.921-9.323 19.79-5.234l35.657 20.609c6.869 3.925 9.323 12.921 5.234 19.79-2.617 4.58-7.524 7.197-12.594 7.197ZM426.059 275.02c-5.07 0-9.814-2.617-12.594-7.197-3.925-6.869-1.636-15.865 5.234-19.79l35.656-20.609c6.869-4.089 15.865-1.635 19.79 5.234 3.926 6.87 1.636 15.865-5.234 19.791l-35.655 20.608c-2.29 1.309-4.744 1.963-7.197 1.963ZM170.247 224.644c-5.071 0-9.814-2.617-12.594-7.197l-32.876-56.918c-3.925-6.87-1.635-15.866 5.234-19.791 6.87-4.089 15.865-1.636 19.791 5.234l32.875 56.918c3.925 6.87 1.636 15.865-5.234 19.791-2.29 1.308-4.743 1.963-7.196 1.963ZM341.829 224.647c-2.453 0-4.907-.654-7.197-1.962-6.869-3.926-9.322-12.921-5.234-19.791l32.876-56.918c3.925-6.87 12.921-9.323 19.79-5.234 6.87 3.925 9.323 12.921 5.234 19.79l-32.875 56.919c-2.617 4.579-7.524 7.196-12.594 7.196ZM286.377 375.612c0 16.683-13.576 30.422-30.422 30.422-16.847 0-30.422-13.576-30.422-30.422 0-16.847 30.422-60.681 30.422-60.681s30.422 43.998 30.422 60.681Z" class="highlight"/></svg>
