<svg xmlns="http://www.w3.org/2000/svg" width="184" height="29" fill="none"><g clip-path="url(#a)"><path fill="#F3FEFD" d="M51.683 5.874h5.314c.896 0 1.714.108 2.456.324.741.216 1.374.51 1.9.911.525.402.942.88 1.22 1.452.293.572.432 1.205.432 1.915v.263c0 .788-.17 1.498-.494 2.132-.324.633-.819 1.173-1.498 1.637.988.448 1.73 1.035 2.255 1.776.525.742.772 1.637.772 2.688v.231c0 .788-.139 1.514-.432 2.147a4.327 4.327 0 0 1-1.251 1.622c-.541.448-1.205.773-1.962 1.02a8.9 8.9 0 0 1-2.58.355h-6.147V5.874h.015Zm5.5 8c1.173 0 2.069-.262 2.687-.772.618-.51.927-1.235.927-2.193v-.216c0-.88-.31-1.576-.943-2.07-.633-.51-1.513-.757-2.687-.757h-3.383v5.993h3.383l.015.016Zm.602 8.48c.633 0 1.204-.077 1.714-.216s.942-.34 1.282-.602a2.68 2.68 0 0 0 .788-.973 3.03 3.03 0 0 0 .278-1.313v-.232c0-.494-.093-.927-.278-1.313a2.57 2.57 0 0 0-.803-.973 3.792 3.792 0 0 0-1.282-.602 6.386 6.386 0 0 0-1.7-.217H53.8v6.472h3.985v-.03ZM66.943 5.874h2.117v16.48h7.63v2.008h-9.747V5.874ZM76.258 14.863c0-1.405.216-2.672.633-3.8a8.493 8.493 0 0 1 1.776-2.903 7.8 7.8 0 0 1 2.688-1.87c1.035-.432 2.178-.648 3.414-.648h.262c1.236 0 2.363.216 3.414.649a7.462 7.462 0 0 1 2.687 1.869c.757.818 1.344 1.776 1.777 2.904.432 1.127.633 2.394.633 3.8v.524c0 1.39-.216 2.657-.633 3.785-.417 1.127-1.02 2.116-1.777 2.92a7.798 7.798 0 0 1-2.687 1.868c-1.035.433-2.178.649-3.414.649h-.262c-1.236 0-2.364-.216-3.414-.649a7.596 7.596 0 0 1-2.688-1.869c-.757-.803-1.343-1.776-1.776-2.92-.432-1.142-.633-2.393-.633-3.784v-.525Zm2.703 3.46a6.758 6.758 0 0 0 1.328 2.255 5.93 5.93 0 0 0 1.993 1.437c.772.34 1.59.51 2.502.51H85c.896 0 1.73-.17 2.502-.51a5.78 5.78 0 0 0 1.993-1.437c.572-.617 1.004-1.374 1.328-2.255.325-.896.495-1.869.495-2.95v-.525c0-1.097-.17-2.07-.495-2.966a6.839 6.839 0 0 0-1.328-2.24 5.78 5.78 0 0 0-1.993-1.436A6.09 6.09 0 0 0 85 7.696h-.216c-.896 0-1.73.17-2.502.51a5.78 5.78 0 0 0-1.993 1.437 6.839 6.839 0 0 0-1.328 2.24c-.325.88-.494 1.868-.494 2.965v.525c0 1.081.17 2.054.494 2.95ZM95.056 14.863c0-1.405.216-2.672.633-3.8a8.493 8.493 0 0 1 1.777-2.903 7.8 7.8 0 0 1 2.687-1.87c1.035-.432 2.178-.648 3.414-.648h.262c1.236 0 2.363.216 3.414.649a7.455 7.455 0 0 1 2.687 1.869c.757.818 1.344 1.776 1.777 2.904.432 1.127.633 2.394.633 3.8v.524c0 1.39-.216 2.657-.633 3.785-.417 1.127-1.02 2.116-1.777 2.92a7.787 7.787 0 0 1-2.687 1.868c-1.035.433-2.178.649-3.414.649h-.262c-1.236 0-2.364-.216-3.414-.649a7.596 7.596 0 0 1-2.688-1.869c-.756-.803-1.343-1.776-1.776-2.92-.432-1.142-.633-2.393-.633-3.784v-.525Zm2.703 3.46a6.758 6.758 0 0 0 1.328 2.255 5.932 5.932 0 0 0 1.993 1.437c.772.34 1.591.51 2.502.51h.216c.896 0 1.73-.17 2.503-.51a5.78 5.78 0 0 0 1.992-1.437c.572-.617 1.004-1.374 1.328-2.255.325-.896.495-1.869.495-2.95v-.525c0-1.097-.17-2.07-.495-2.966a6.833 6.833 0 0 0-1.328-2.24 5.78 5.78 0 0 0-1.992-1.436 6.095 6.095 0 0 0-2.503-.51h-.216c-.896 0-1.73.17-2.502.51a5.784 5.784 0 0 0-1.993 1.437 6.839 6.839 0 0 0-1.328 2.24c-.324.88-.494 1.868-.494 2.965v.525c0 1.081.17 2.054.494 2.95ZM114.997 5.874h5.174c1.39 0 2.657.2 3.8.617 1.143.417 2.116 1.004 2.934 1.777a7.856 7.856 0 0 1 1.885 2.764c.448 1.082.679 2.271.679 3.6v.525c0 1.39-.231 2.656-.679 3.784a8.494 8.494 0 0 1-1.885 2.904 8.234 8.234 0 0 1-2.934 1.869c-1.143.448-2.41.664-3.8.664h-5.174V5.874Zm5.174 16.48c1.112 0 2.101-.17 2.966-.51.865-.34 1.591-.803 2.208-1.42.603-.618 1.066-1.375 1.391-2.286.324-.912.478-1.931.478-3.043V14.6c0-1.034-.154-1.977-.478-2.795-.325-.834-.773-1.53-1.391-2.116-.602-.587-1.343-1.02-2.224-1.329-.865-.309-1.853-.463-2.95-.463h-3.058V22.37h3.058v-.016ZM129.841 5.874h2.225l3.274 16.14h.108l4.248-16.14h2.039l4.247 16.14h.109l3.537-16.14h2.224l-4.248 18.488H144.7l-3.907-14.658h-.109l-3.938 14.658h-2.904l-3.985-18.488h-.016ZM153.75 5.874h2.117v18.489h-2.117V5.874ZM162.895 24.44a9.794 9.794 0 0 1-1.776-.525 8.997 8.997 0 0 1-1.622-.85c-.51-.34-.973-.71-1.375-1.112l1.344-1.606c.34.37.711.695 1.112.957.402.278.834.51 1.313.68.464.185.942.324 1.437.417a8.02 8.02 0 0 0 1.482.139c.634 0 1.19-.062 1.684-.2a3.429 3.429 0 0 0 1.22-.572c.325-.248.587-.556.773-.943.169-.37.262-.818.262-1.313 0-.726-.17-1.297-.525-1.73-.355-.432-.819-.787-1.39-1.08-.572-.294-1.22-.541-1.931-.742-.71-.2-1.436-.417-2.147-.649a11.452 11.452 0 0 1-1.591-.664 4.785 4.785 0 0 1-1.313-.927 4.164 4.164 0 0 1-.88-1.328c-.216-.525-.325-1.143-.325-1.87 0-.756.139-1.436.402-2.053a4.173 4.173 0 0 1 1.174-1.56 5.42 5.42 0 0 1 1.838-1.004 7.722 7.722 0 0 1 2.394-.356c1.112 0 2.178.201 3.228.603 1.035.401 1.9.957 2.595 1.668l-1.297 1.637c-.572-.618-1.267-1.066-2.116-1.375-.85-.293-1.668-.447-2.487-.447-.572 0-1.066.061-1.498.2a3.35 3.35 0 0 0-1.128.556 2.22 2.22 0 0 0-.695.865c-.154.34-.232.71-.232 1.143 0 .526.108.974.34 1.329.232.355.541.68.958.942.401.262.88.494 1.421.68.54.185 1.127.37 1.745.54.68.201 1.375.417 2.055.68a8.067 8.067 0 0 1 1.838.988c.54.402.988.912 1.328 1.514.34.602.494 1.36.494 2.255 0 .803-.139 1.545-.432 2.193a4.708 4.708 0 0 1-1.236 1.653 5.808 5.808 0 0 1-1.962 1.05c-.772.248-1.621.371-2.579.371a9.432 9.432 0 0 1-1.854-.185l-.046.03ZM173.197 5.874h10.272v2.008h-8.156v5.993h7.63v2.008h-7.63v6.471h8.418v2.008h-10.534V5.874Z"/><path fill="#86DED8" d="M21.656 16.825a1.378 1.378 0 0 1-1.375-1.375V2.105c0-.757.618-1.375 1.375-1.375s1.374.618 1.374 1.375v13.36c0 .757-.617 1.375-1.374 1.375v-.015ZM26.181 18.045a1.363 1.363 0 0 1-1.174-2.054L31.68 4.42c.37-.648 1.22-.88 1.87-.494.648.371.88 1.22.493 1.87l-6.672 11.568c-.247.433-.71.68-1.19.68ZM29.503 21.35c-.479 0-.927-.247-1.19-.68-.37-.648-.154-1.498.495-1.868l11.569-6.673a1.363 1.363 0 0 1 1.869.494c.37.65.154 1.499-.494 1.87l-11.57 6.672a1.366 1.366 0 0 1-.68.185ZM17.13 18.045c-.479 0-.927-.247-1.19-.68L9.269 5.781c-.37-.649-.154-1.499.494-1.87a1.363 1.363 0 0 1 1.87.495l6.672 11.57c.37.648.155 1.497-.494 1.868a1.365 1.365 0 0 1-.68.185v.016ZM13.825 21.35c-.232 0-.464-.062-.68-.185L1.561 14.492a1.364 1.364 0 0 1-.495-1.869c.371-.648 1.22-.88 1.87-.494l11.568 6.673a1.367 1.367 0 0 1-.695 2.549h.016Z"/><path fill="#F3FEFD" d="M21.656 12.006a1.378 1.378 0 0 1-1.375-1.375V2.105c0-.757.618-1.375 1.375-1.375s1.374.618 1.374 1.375v8.541c0 .757-.617 1.375-1.374 1.375v-.015ZM5.607 16.609c-.231 0-.463-.062-.68-.186l-3.366-1.946a1.364 1.364 0 0 1-.495-1.869c.371-.649 1.22-.88 1.87-.494l3.367 1.946a1.367 1.367 0 0 1-.695 2.549ZM37.72 16.609c-.479 0-.926-.247-1.19-.68-.37-.649-.154-1.498.495-1.869l3.367-1.946a1.364 1.364 0 0 1 1.87.494c.37.649.154 1.498-.495 1.87L38.4 16.422a1.366 1.366 0 0 1-.68.186ZM13.562 11.851c-.479 0-.927-.247-1.19-.68L9.269 5.797c-.37-.648-.154-1.498.494-1.869a1.363 1.363 0 0 1 1.87.495l3.104 5.375c.37.649.154 1.498-.494 1.869a1.365 1.365 0 0 1-.68.185ZM29.766 11.852c-.232 0-.463-.062-.68-.186a1.363 1.363 0 0 1-.494-1.869l3.105-5.375c.37-.649 1.22-.88 1.869-.494.648.37.88 1.22.494 1.869l-3.105 5.375c-.247.433-.71.68-1.19.68ZM24.53 26.108a2.877 2.877 0 0 1-2.874 2.873 2.868 2.868 0 0 1-2.873-2.873c0-1.591 2.873-5.73 2.873-5.73s2.873 4.154 2.873 5.73Z"/></g><defs><clipPath id="a"><path fill="#fff" d="M.882.73h182.85v28.235H.882z"/></clipPath></defs></svg>
