<svg xmlns="http://www.w3.org/2000/svg" width="28" height="28" fill="none" stroke='currentColor'><path stroke-linecap="round" stroke-linejoin="round" d="M1.273 26.939v-1.107a4.427 4.427 0 0 1 2.877-4.145L9.83 19.78"/><path stroke-linecap="round" stroke-linejoin="round" d="m18.175 19.78 5.674 1.907a4.427 4.427 0 0 1 2.878 4.145v1.107"/><path stroke-linecap="round" stroke-linejoin="round" d="M12.34 15.318c.413.369.95.566 1.503.553h.315a2.175 2.175 0 0 0 1.503-.553"/><path stroke-linecap="round" stroke-linejoin="round" d="M12.893 10.891a1.205 1.205 0 0 0-1.107-.553 1.205 1.205 0 0 0-1.106.553"/><path stroke-linecap="round" stroke-linejoin="round" d="M17.32 10.891a1.205 1.205 0 0 0-1.106-.553 1.205 1.205 0 0 0-1.107.553"/><path stroke-linecap="round" stroke-linejoin="round" d="M14.022 19.191c1.535 0 4.97-1.904 5.458-4.83.06-.364.298-.673.633-.826 1.191-.541 1.492-2.714.527-3.197.554-3.305.554-8.854-6.62-8.854S6.852 7.033 7.4 10.338c-.963.483-.663 2.656.53 3.197.335.153.572.462.633.826.49 2.926 3.924 4.83 5.46 4.83Z" clip-rule="evenodd"/><path stroke-linecap="round" stroke-linejoin="round" d="M7.047 12.563A6.25 6.25 0 0 1 4.74 16.68a.553.553 0 0 0-.052.929 4.904 4.904 0 0 0 3.224 1.03"/><path stroke-linecap="round" stroke-linejoin="round" d="M20.972 12.63a6.198 6.198 0 0 0 2.291 4.05.554.554 0 0 1 .052.929 4.904 4.904 0 0 1-3.228 1.03"/><path stroke-linecap="round" stroke-linejoin="round" d="M7.191 8.107c1.481-.034 4.465.419 6.809-2.4 2.355 2.832 5.39 2.372 6.854 2.41"/><path stroke-linecap="round" stroke-linejoin="round" d="M18.98 20.05c-.073 2.292-3.466 5.533-4.606 6.554a.554.554 0 0 1-.74 0c-1.14-1.025-4.537-4.26-4.606-6.554"/></svg>
