<svg xmlns="http://www.w3.org/2000/svg" width="88" height="16" fill="none"><path fill="#86DED8" d="M6.194 11.344 1.602 6.256v5.088H.146V.192h1.456V5.36L6.21.192h1.84L2.994 5.776l5.104 5.568H6.194ZM11.34 4c.257-.501.62-.89 1.089-1.168.48-.277 1.06-.416 1.744-.416V3.92h-.384c-1.632 0-2.448.885-2.448 2.656v4.768H9.885V2.576h1.456V4Zm12.225-1.424-5.28 12.896h-1.504l1.728-4.224-3.536-8.672h1.616l2.752 7.104 2.72-7.104h1.504Zm3.08 1.616c.288-.501.715-.917 1.28-1.248.576-.341 1.243-.512 2-.512a4.06 4.06 0 0 1 2.112.56c.64.373 1.141.901 1.504 1.584.363.672.544 1.456.544 2.352 0 .885-.181 1.675-.544 2.368a4.003 4.003 0 0 1-1.504 1.616 3.975 3.975 0 0 1-2.112.576c-.747 0-1.408-.165-1.984-.496-.565-.341-.997-.763-1.296-1.264v5.776h-1.456V2.576h1.456v1.616Zm5.952 2.736c0-.661-.133-1.237-.4-1.728a2.754 2.754 0 0 0-1.088-1.12 2.946 2.946 0 0 0-1.488-.384 2.91 2.91 0 0 0-1.488.4c-.448.256-.81.635-1.088 1.136-.267.49-.4 1.061-.4 1.712 0 .661.133 1.243.4 1.744.277.49.64.87 1.088 1.136.459.256.955.384 1.488.384.544 0 1.04-.128 1.488-.384a2.864 2.864 0 0 0 1.088-1.136c.267-.501.4-1.088.4-1.76Zm5.341-3.152v5.168c0 .427.09.73.271.912.182.17.496.256.944.256h1.072v1.232h-1.312c-.81 0-1.418-.187-1.823-.56-.406-.373-.609-.987-.609-1.84V3.776h-1.136v-1.2h1.136V.368h1.456v2.208h2.288v1.2h-2.288Zm8.036 7.712a4.534 4.534 0 0 1-2.24-.56 4.07 4.07 0 0 1-1.568-1.584c-.374-.693-.56-1.493-.56-2.4 0-.896.192-1.685.576-2.368a4.009 4.009 0 0 1 1.6-1.584c.672-.373 1.424-.56 2.256-.56.832 0 1.584.187 2.256.56.672.363 1.2.885 1.584 1.568.394.683.592 1.477.592 2.384 0 .907-.203 1.707-.608 2.4a4.118 4.118 0 0 1-1.616 1.584c-.683.373-1.44.56-2.272.56Zm0-1.28c.522 0 1.013-.123 1.472-.368a2.748 2.748 0 0 0 1.104-1.104c.288-.49.432-1.088.432-1.792s-.14-1.301-.416-1.792c-.278-.49-.64-.853-1.088-1.088a2.983 2.983 0 0 0-1.456-.368c-.534 0-1.024.123-1.472.368-.438.235-.79.597-1.056 1.088-.267.49-.4 1.088-.4 1.792 0 .715.128 1.317.384 1.808.266.49.618.859 1.056 1.104.437.235.917.352 1.44.352Zm10.842-7.792c1.067 0 1.93.325 2.592.976.661.64.992 1.568.992 2.784v5.168h-1.44v-4.96c0-.875-.219-1.541-.656-2-.437-.47-1.035-.704-1.792-.704-.768 0-1.381.24-1.84.72-.448.48-.672 1.179-.672 2.096v4.848h-1.456V2.576H54v1.248a2.903 2.903 0 0 1 1.168-1.04 3.698 3.698 0 0 1 1.648-.368Zm13.898.16v8.768h-1.456v-1.296c-.277.448-.666.8-1.168 1.056a3.598 3.598 0 0 1-1.632.368c-.682 0-1.296-.139-1.84-.416a3.184 3.184 0 0 1-1.296-1.28c-.309-.565-.464-1.253-.464-2.064V2.576h1.44V7.52c0 .864.219 1.53.656 2 .438.459 1.035.688 1.792.688.779 0 1.392-.24 1.84-.72.448-.48.672-1.179.672-2.096V2.576h1.456Zm13.163-.16c.682 0 1.29.144 1.824.432.533.277.954.699 1.264 1.264.31.565.464 1.253.464 2.064v5.168h-1.44v-4.96c0-.875-.219-1.541-.656-2-.427-.47-1.008-.704-1.744-.704-.758 0-1.36.245-1.808.736-.448.48-.672 1.179-.672 2.096v4.832h-1.44v-4.96c0-.875-.219-1.541-.656-2-.427-.47-1.008-.704-1.744-.704-.758 0-1.36.245-1.808.736-.448.48-.672 1.179-.672 2.096v4.832h-1.456V2.576h1.456V3.84a2.89 2.89 0 0 1 1.152-1.056 3.563 3.563 0 0 1 1.616-.368c.736 0 1.386.165 1.952.496.565.33.986.816 1.264 1.456a2.876 2.876 0 0 1 1.216-1.44 3.582 3.582 0 0 1 1.888-.512Z"/></svg>
