<svg xmlns="http://www.w3.org/2000/svg" width="25" height="25" fill="none"><path stroke="#066A62" stroke-linecap="round" stroke-linejoin="round" d="M24.459 24.176a4.065 4.065 0 0 0-2.643-3.806l-5.112-1.717a.508.508 0 0 0-.581.195 4.065 4.065 0 0 1-6.708 0 .508.508 0 0 0-.581-.194L3.726 20.37a4.065 4.065 0 0 0-2.643 3.806"/><path stroke="#066A62" stroke-linecap="round" stroke-linejoin="round" d="M18.268 19.177a6.042 6.042 0 0 1-10.995 0"/><path stroke="#066A62" stroke-linecap="round" stroke-linejoin="round" d="m17.203 8.156-.344-1.728c-4.066 0-4.066-2.033-4.066-2.033h-.085s0 2.033-4.065 2.033l-.344 1.728"/><path stroke="#066A62" stroke-linecap="round" stroke-linejoin="round" d="M11.246 13.545c.379.339.872.52 1.38.508h.289a1.997 1.997 0 0 0 1.38-.508"/><path stroke="#066A62" stroke-linecap="round" stroke-linejoin="round" d="M11.754 9.48a1.105 1.105 0 0 0-1.016-.508 1.107 1.107 0 0 0-1.016.508"/><path stroke="#066A62" stroke-linecap="round" stroke-linejoin="round" d="M15.82 9.48a1.105 1.105 0 0 0-1.016-.508 1.107 1.107 0 0 0-1.016.508"/><path stroke="#066A62" stroke-linecap="round" stroke-linejoin="round" d="M12.75 17.103c1.415 0 4.574-1.749 5.028-4.436.056-.335.275-.62.584-.76 1.1-.497 1.374-2.491.487-2.934.508-3.035.508-8.13-6.098-8.13s-6.606 5.095-6.098 8.13c-.887.443-.61 2.439.487 2.935.309.14.527.424.583.759.45 2.687 3.614 4.436 5.028 4.436Z" clip-rule="evenodd"/></svg>
