<svg xmlns="http://www.w3.org/2000/svg" width="28" height="29" fill="none"><path stroke="#0F9288" stroke-linecap="round" stroke-linejoin="round" stroke-width="1.5" d="M5.833 14.848A5.833 5.833 0 0 1 14 23.014m-8.167-8.166a5.825 5.825 0 0 0-2.332 4.666c0 .603.092 1.184.261 1.731.318 1.026.089 2.17-.114 3.247a.546.546 0 0 0 .69.63c.989-.271 1.973-.502 2.983-.131a5.82 5.82 0 0 0 2.013.357A5.823 5.823 0 0 0 14 23.014m-8.167-8.166c0-5.466 3.355-10.5 9.333-10.5a9.333 9.333 0 0 1 9.332 9.333 9.316 9.316 0 0 1-.544 3.15c-.555 1.547.043 3.619.393 5.329a.526.526 0 0 1-.68.614c-1.531-.478-3.328-1.15-4.767-.544-1.556.656-3.192.784-4.9.784"/></svg>
